PathFileType	4	(X/Y/Z)	s10c0201.trc
DataRate	CameraRate	NumFrames	NumMarkers	Units	OrigDataRate	OrigDataStartFrame	OrigNumFrames
200	200	4	50	mm	200	250	2000
Frame#	Time	racr			lacr			c7			jug			rlel			rdr			llel			ldr			s2			lic			ric			lasi			rasi			rpsi			lpsi			rgt			lgt			rth1			rth2			rth3			rth4			rlfc			rmfc			rsh1			rsh2			rsh3			rsh4			rlmal			rmmal			rcal			rtoe			rmt5			lth1			lth2			lth4			lth3			llfc			lmfc			llmal			lmmal			lcal			lmt5			lsh1			lsh2			lsh3			lsh4			ltoe			SBIKE			LBIKE			RBIKE			
		X1	Y1	Z1	X2	Y2	Z2	X3	Y3	Z3	X4	Y4	Z4	X5	Y5	Z5	X6	Y6	Z6	X7	Y7	Z7	X8	Y8	Z8	X9	Y9	Z9	X10	Y10	Z10	X11	Y11	Z11	X12	Y12	Z12	X13	Y13	Z13	X14	Y14	Z14	X15	Y15	Z15	X16	Y16	Z16	X17	Y17	Z17	X18	Y18	Z18	X19	Y19	Z19	X20	Y20	Z20	X21	Y21	Z21	X22	Y22	Z22	X23	Y23	Z23	X24	Y24	Z24	X25	Y25	Z25	X26	Y26	Z26	X27	Y27	Z27	X28	Y28	Z28	X29	Y29	Z29	X30	Y30	Z30	X31	Y31	Z31	X32	Y32	Z32	X33	Y33	Z33	X34	Y34	Z34	X35	Y35	Z35	X36	Y36	Z36	X37	Y37	Z37	X38	Y38	Z38	X39	Y39	Z39	X40	Y40	Z40	X41	Y41	Z41	X42	Y42	Z42	X43	Y43	Z43	X44	Y44	Z44	X45	Y45	Z45	X46	Y46	Z46	X47	Y47	Z47	X48	Y48	Z48	X49	Y49	Z49	X50	Y50	Z50	
250	1.2500	414.357011	1344.276483	-53.604090	416.071637	1353.981044	-382.915969	397.483385	1379.196416	-219.774877	423.307918	1238.950028	-213.585021	474.649249	1083.265949	11.750392	625.102468	911.751080	-38.665517	473.260695	1084.866477	-468.821408	618.531360	910.221791	-425.127650	-75.585009	1108.742934	-220.990297	91.183209	1088.154519	-372.823262	112.473225	1097.232224	-76.696071	103.149632	999.146442	-342.164411	96.897268	1015.937148	-87.289409	-25.186847	1143.522181	-162.835148	-17.298378	1146.296296	-275.614756	-24.071497	1026.362112	-20.198994	-36.902263	983.853524	-417.298224	61.609070	932.076110	9.707647	149.930965	921.599109	-0.841373	218.017333	869.733009	-2.976761	161.249958	955.438840	-14.619512	326.697528	822.636213	-20.905776	324.509752	814.018014	-138.875551	265.612010	719.565446	-4.601372	263.524855	631.838878	-21.981736	218.484215	559.436030	-35.825072	294.388075	627.890741	-43.972455	193.802741	457.615056	-61.947552	218.015299	482.705960	-136.994607	143.195763	430.567309	-107.217795	385.422042	430.856316	-105.664826	306.748089	398.337931	-42.425706	26.834943	870.684073	-438.603790	101.554123	826.305754	-430.178614	126.767499	851.311882	-419.244915	144.538722	748.554005	-428.097151	216.105752	661.349157	-410.970093	225.270940	655.506644	-291.578556	-26.151629	379.086241	-378.004090	-6.576721	371.753433	-301.097976	-81.543775	386.436672	-331.226709	15.761078	241.242663	-399.207532	120.636996	581.213164	-429.416977	96.103886	498.485601	-412.312197	29.501816	440.033548	-400.671145	123.375363	486.006724	-388.593175	98.598666	209.586719	-345.419466	-218.440019	833.699918	-214.304736	-104.034031	80.362405	-418.371297	-104.053331	80.383530	-18.309148	
251	1.2550	414.342365	1344.265040	-53.594082	416.079370	1353.978176	-382.896560	397.475251	1379.195024	-219.751963	423.302023	1238.934681	-213.574398	474.637446	1083.245359	11.762908	625.056453	911.748918	-38.730818	473.253148	1084.865385	-468.819321	618.536947	910.222277	-425.109343	-75.613450	1108.737922	-220.992251	91.153524	1088.169581	-372.808434	112.439198	1097.232585	-76.697761	103.141181	999.151512	-342.163266	96.879657	1015.939567	-87.277200	-25.219567	1143.541252	-162.826614	-17.322310	1146.295657	-275.623773	-24.086149	1026.355303	-20.190475	-36.916193	983.813740	-417.275717	61.615881	932.073932	9.694452	149.945638	921.596736	-0.877046	218.017131	869.725816	-3.011931	161.222417	955.410001	-14.686350	326.689968	822.634319	-20.944277	324.492911	814.011415	-138.934753	265.611163	719.566069	-4.635614	263.487455	631.856527	-22.016789	218.447159	559.428048	-35.820796	294.346865	627.881546	-44.003749	193.789135	457.611521	-61.955275	217.997161	482.696522	-136.978253	143.181428	430.542808	-107.206671	385.399599	430.857494	-105.658860	306.729281	398.345497	-42.426294	26.818875	870.533207	-438.485493	101.554483	826.249892	-430.163965	126.739698	851.270954	-419.255644	144.516020	748.508233	-428.076564	216.106241	661.329401	-410.945110	225.267813	655.486894	-291.570657	-26.154456	379.071948	-377.997940	-6.543803	371.731484	-301.100017	-81.547282	386.419254	-331.233746	15.778722	241.260587	-399.218455	120.603102	581.195486	-429.391023	96.078278	498.466635	-412.269167	29.501533	440.017633	-400.656768	123.356023	485.999003	-388.612113	98.593220	209.591101	-345.428135	-218.434863	833.697427	-214.300932	-104.049532	80.376310	-418.384302	-104.048116	80.384554	-18.313242	
252	1.2600	414.305338	1344.242239	-53.586049	416.083848	1353.970444	-382.871372	397.478485	1379.168919	-219.746512	423.283866	1238.925316	-213.563837	474.616406	1083.214161	11.778894	625.034384	911.718752	-38.773498	473.254670	1084.854895	-468.816904	618.533212	910.211287	-425.091437	-75.634889	1108.719814	-221.005386	91.127605	1088.165730	-372.791452	112.405608	1097.246896	-76.688645	103.112265	999.136987	-342.143652	96.889445	1015.947519	-87.310067	-25.338526	1143.522036	-162.880299	-17.336594	1146.282950	-275.627259	-24.101729	1026.350672	-20.188265	-36.921702	983.777416	-417.278228	61.613292	932.068512	9.660235	149.967739	921.570089	-0.926378	218.020603	869.722844	-3.082178	161.215954	955.401061	-14.733357	326.696159	822.630614	-20.995863	324.472622	814.004061	-138.982382	265.601144	719.577634	-4.683342	263.462206	631.866521	-22.021712	218.412701	559.446273	-35.828584	294.314379	627.869148	-44.025402	193.776523	457.598083	-61.958712	217.987741	482.659211	-137.022050	143.167125	430.505289	-107.220410	385.385970	430.888624	-105.667808	306.719093	398.350698	-42.431904	26.808180	870.493926	-438.477404	101.516790	826.217666	-430.144947	126.738177	851.247271	-419.255934	144.508634	748.452838	-428.050005	216.097271	661.323205	-410.935796	225.259383	655.477623	-291.568490	-26.150136	379.061171	-377.980192	-6.532193	371.696431	-301.115537	-81.539443	386.421584	-331.230320	15.789749	241.265349	-399.194534	120.581024	581.205293	-429.378143	96.075541	498.473067	-412.290391	29.487914	440.011994	-400.645243	123.345547	485.999219	-388.601963	98.612854	209.609896	-345.453278	-218.435390	833.706987	-214.289113	-104.027675	80.382600	-418.363954	-104.056323	80.404028	-18.321492	
253	1.2650	414.283024	1344.218908	-53.590877	416.092241	1353.954772	-382.848141	397.447966	1379.141708	-219.743025	423.259250	1238.903569	-213.531407	474.591947	1083.166142	11.802975	625.041342	911.721331	-38.806611	473.238955	1084.836943	-468.819338	618.525666	910.195690	-425.101748	-75.670023	1108.719378	-220.989165	91.084683	1088.136042	-372.722988	112.355229	1097.265304	-76.696308	103.086962	999.164140	-342.165210	96.860762	1015.962790	-87.306056	-25.359870	1143.528225	-162.891912	-17.380161	1146.287488	-275.620749	-24.113055	1026.352567	-20.206244	-36.947300	983.754002	-417.271080	61.644000	931.994767	9.636778	149.942414	921.604705	-0.942594	218.027894	869.719917	-3.119577	161.198936	955.379082	-14.773480	326.672470	822.626923	-21.080994	324.457198	813.999808	-139.052395	265.572761	719.593503	-4.721437	263.443366	631.876706	-22.062217	218.404077	559.436866	-35.850020	294.303238	627.872136	-44.045044	193.756440	457.600897	-61.975601	217.943154	482.646902	-137.006442	143.126007	430.463764	-107.188793	385.377073	430.893128	-105.652876	306.699234	398.383742	-42.433773	26.776351	870.474222	-438.493366	101.494669	826.161379	-430.148883	126.713480	851.202952	-419.239234	144.494225	748.425674	-428.051052	216.085145	661.307538	-410.910878	225.241918	655.461288	-291.542631	-26.148314	379.055459	-377.981753	-6.564718	371.720411	-301.098515	-81.548376	386.406705	-331.216761	15.786310	241.252716	-399.208378	120.576337	581.201581	-429.374542	96.078248	498.466726	-412.269287	29.489310	440.024084	-400.634177	123.341323	486.003130	-388.619511	98.614652	209.578945	-345.440692	-218.437663	833.706458	-214.282796	-104.038116	80.364250	-418.359647	-104.049185	80.392810	-18.308133	
